<mxfile host="app.diagrams.net" modified="2024-06-17T12:58:49.580Z" agent="Mozilla/5.0 (Windows NT 10.0; Win64; x64) AppleWebKit/537.36 (KHTML, like Gecko) Chrome/124.0.0.0 Safari/537.36 OPR/110.0.0.0" etag="g6rG3GLj-39DlBA0QT3j" version="24.5.4" type="github">
  <diagram name="Page-1" id="2YBvvXClWsGukQMizWep">
    <mxGraphModel dx="1854" dy="1056" grid="0" gridSize="10" guides="1" tooltips="1" connect="1" arrows="1" fold="1" page="0" pageScale="1" pageWidth="850" pageHeight="1100" math="0" shadow="0">
      <root>
        <mxCell id="0" />
        <mxCell id="1" parent="0" />
        <mxCell id="aM9ryv3xv72pqoxQDRHE-1" value="Client" style="shape=umlLifeline;perimeter=lifelinePerimeter;whiteSpace=wrap;html=1;container=0;dropTarget=0;collapsible=0;recursiveResize=0;outlineConnect=0;portConstraint=eastwest;newEdgeStyle={&quot;edgeStyle&quot;:&quot;elbowEdgeStyle&quot;,&quot;elbow&quot;:&quot;vertical&quot;,&quot;curved&quot;:0,&quot;rounded&quot;:0};" parent="1" vertex="1">
          <mxGeometry x="40" y="10" width="100" height="1412" as="geometry" />
        </mxCell>
        <mxCell id="aM9ryv3xv72pqoxQDRHE-2" value="" style="html=1;points=[];perimeter=orthogonalPerimeter;outlineConnect=0;targetShapes=umlLifeline;portConstraint=eastwest;newEdgeStyle={&quot;edgeStyle&quot;:&quot;elbowEdgeStyle&quot;,&quot;elbow&quot;:&quot;vertical&quot;,&quot;curved&quot;:0,&quot;rounded&quot;:0};" parent="aM9ryv3xv72pqoxQDRHE-1" vertex="1">
          <mxGeometry x="45" y="336" width="10" height="60" as="geometry" />
        </mxCell>
        <mxCell id="TzS1LCkyJQZkEgtBNQex-35" value="" style="html=1;points=[[0,0,0,0,5],[0,1,0,0,-5],[1,0,0,0,5],[1,1,0,0,-5]];perimeter=orthogonalPerimeter;outlineConnect=0;targetShapes=umlLifeline;portConstraint=eastwest;newEdgeStyle={&quot;curved&quot;:0,&quot;rounded&quot;:0};" parent="aM9ryv3xv72pqoxQDRHE-1" vertex="1">
          <mxGeometry x="45" y="739" width="10" height="80" as="geometry" />
        </mxCell>
        <mxCell id="Fvfi_yW-NIccIC17RvOr-3" value="" style="html=1;points=[[0,0,0,0,5],[0,1,0,0,-5],[1,0,0,0,5],[1,1,0,0,-5]];perimeter=orthogonalPerimeter;outlineConnect=0;targetShapes=umlLifeline;portConstraint=eastwest;newEdgeStyle={&quot;curved&quot;:0,&quot;rounded&quot;:0};" parent="aM9ryv3xv72pqoxQDRHE-1" vertex="1">
          <mxGeometry x="45" y="846" width="10" height="50" as="geometry" />
        </mxCell>
        <mxCell id="aM9ryv3xv72pqoxQDRHE-5" value="Server" style="shape=umlLifeline;perimeter=lifelinePerimeter;whiteSpace=wrap;html=1;container=0;dropTarget=0;collapsible=0;recursiveResize=0;outlineConnect=0;portConstraint=eastwest;newEdgeStyle={&quot;edgeStyle&quot;:&quot;elbowEdgeStyle&quot;,&quot;elbow&quot;:&quot;vertical&quot;,&quot;curved&quot;:0,&quot;rounded&quot;:0};" parent="1" vertex="1">
          <mxGeometry x="220" y="10" width="100" height="1118" as="geometry" />
        </mxCell>
        <mxCell id="aM9ryv3xv72pqoxQDRHE-6" value="" style="html=1;points=[];perimeter=orthogonalPerimeter;outlineConnect=0;targetShapes=umlLifeline;portConstraint=eastwest;newEdgeStyle={&quot;edgeStyle&quot;:&quot;elbowEdgeStyle&quot;,&quot;elbow&quot;:&quot;vertical&quot;,&quot;curved&quot;:0,&quot;rounded&quot;:0};" parent="aM9ryv3xv72pqoxQDRHE-5" vertex="1">
          <mxGeometry x="45" y="339" width="10" height="70" as="geometry" />
        </mxCell>
        <mxCell id="TzS1LCkyJQZkEgtBNQex-30" value="" style="html=1;points=[[0,0,0,0,5],[0,1,0,0,-5],[1,0,0,0,5],[1,1,0,0,-5]];perimeter=orthogonalPerimeter;outlineConnect=0;targetShapes=umlLifeline;portConstraint=eastwest;newEdgeStyle={&quot;curved&quot;:0,&quot;rounded&quot;:0};" parent="aM9ryv3xv72pqoxQDRHE-5" vertex="1">
          <mxGeometry x="45" y="743" width="10" height="80" as="geometry" />
        </mxCell>
        <mxCell id="TzS1LCkyJQZkEgtBNQex-49" value="" style="html=1;points=[[0,0,0,0,5],[0,1,0,0,-5],[1,0,0,0,5],[1,1,0,0,-5]];perimeter=orthogonalPerimeter;outlineConnect=0;targetShapes=umlLifeline;portConstraint=eastwest;newEdgeStyle={&quot;curved&quot;:0,&quot;rounded&quot;:0};" parent="aM9ryv3xv72pqoxQDRHE-5" vertex="1">
          <mxGeometry x="45" y="603" width="10" height="44" as="geometry" />
        </mxCell>
        <mxCell id="Fvfi_yW-NIccIC17RvOr-4" value="" style="html=1;points=[[0,0,0,0,5],[0,1,0,0,-5],[1,0,0,0,5],[1,1,0,0,-5]];perimeter=orthogonalPerimeter;outlineConnect=0;targetShapes=umlLifeline;portConstraint=eastwest;newEdgeStyle={&quot;curved&quot;:0,&quot;rounded&quot;:0};" parent="aM9ryv3xv72pqoxQDRHE-5" vertex="1">
          <mxGeometry x="45" y="846" width="10" height="50" as="geometry" />
        </mxCell>
        <mxCell id="Fvfi_yW-NIccIC17RvOr-9" value="" style="html=1;points=[[0,0,0,0,5],[0,1,0,0,-5],[1,0,0,0,5],[1,1,0,0,-5]];perimeter=orthogonalPerimeter;outlineConnect=0;targetShapes=umlLifeline;portConstraint=eastwest;newEdgeStyle={&quot;curved&quot;:0,&quot;rounded&quot;:0};" parent="aM9ryv3xv72pqoxQDRHE-5" vertex="1">
          <mxGeometry x="45" y="665" width="10" height="50" as="geometry" />
        </mxCell>
        <mxCell id="aM9ryv3xv72pqoxQDRHE-7" value="PLayerNameMessage" style="html=1;verticalAlign=bottom;endArrow=block;edgeStyle=elbowEdgeStyle;elbow=horizontal;curved=0;rounded=0;" parent="1" source="aM9ryv3xv72pqoxQDRHE-2" target="aM9ryv3xv72pqoxQDRHE-6" edge="1">
          <mxGeometry relative="1" as="geometry">
            <mxPoint x="195" y="369" as="sourcePoint" />
            <Array as="points">
              <mxPoint x="180" y="359" />
            </Array>
          </mxGeometry>
        </mxCell>
        <mxCell id="TzS1LCkyJQZkEgtBNQex-1" value="while confrimation is false" style="shape=umlFrame;whiteSpace=wrap;html=1;pointerEvents=0;width=110;height=40;" parent="1" vertex="1">
          <mxGeometry x="-40" y="157" width="330" height="302" as="geometry" />
        </mxCell>
        <mxCell id="TzS1LCkyJQZkEgtBNQex-18" value="" style="html=1;points=[];perimeter=orthogonalPerimeter;outlineConnect=0;targetShapes=umlLifeline;portConstraint=eastwest;newEdgeStyle={&quot;edgeStyle&quot;:&quot;elbowEdgeStyle&quot;,&quot;elbow&quot;:&quot;vertical&quot;,&quot;curved&quot;:0,&quot;rounded&quot;:0};" parent="1" vertex="1">
          <mxGeometry x="85" y="489" width="10" height="60" as="geometry" />
        </mxCell>
        <mxCell id="TzS1LCkyJQZkEgtBNQex-19" value="" style="html=1;points=[];perimeter=orthogonalPerimeter;outlineConnect=0;targetShapes=umlLifeline;portConstraint=eastwest;newEdgeStyle={&quot;edgeStyle&quot;:&quot;elbowEdgeStyle&quot;,&quot;elbow&quot;:&quot;vertical&quot;,&quot;curved&quot;:0,&quot;rounded&quot;:0};" parent="1" vertex="1">
          <mxGeometry x="265" y="499" width="10" height="60" as="geometry" />
        </mxCell>
        <mxCell id="TzS1LCkyJQZkEgtBNQex-20" value="PlayerColorMessage" style="html=1;verticalAlign=bottom;endArrow=block;edgeStyle=elbowEdgeStyle;elbow=horizontal;curved=0;rounded=0;" parent="1" source="TzS1LCkyJQZkEgtBNQex-18" target="TzS1LCkyJQZkEgtBNQex-19" edge="1">
          <mxGeometry relative="1" as="geometry">
            <mxPoint x="195" y="509" as="sourcePoint" />
            <Array as="points">
              <mxPoint x="180" y="499" />
            </Array>
          </mxGeometry>
        </mxCell>
        <mxCell id="TzS1LCkyJQZkEgtBNQex-22" value="while confrimation is false" style="shape=umlFrame;whiteSpace=wrap;html=1;pointerEvents=0;width=110;height=40;" parent="1" vertex="1">
          <mxGeometry x="-40" y="469" width="330" height="130" as="geometry" />
        </mxCell>
        <mxCell id="TzS1LCkyJQZkEgtBNQex-27" value="ReadyStatusMessage" style="html=1;verticalAlign=bottom;endArrow=block;curved=0;rounded=0;" parent="1" edge="1">
          <mxGeometry width="80" relative="1" as="geometry">
            <mxPoint x="90.5" y="629" as="sourcePoint" />
            <mxPoint x="264" y="629" as="targetPoint" />
          </mxGeometry>
        </mxCell>
        <mxCell id="TzS1LCkyJQZkEgtBNQex-31" value="SetStartingCardMessage" style="html=1;verticalAlign=bottom;endArrow=block;curved=0;rounded=0;" parent="1" edge="1">
          <mxGeometry width="80" relative="1" as="geometry">
            <mxPoint x="265" y="763" as="sourcePoint" />
            <mxPoint x="98" y="763" as="targetPoint" />
          </mxGeometry>
        </mxCell>
        <mxCell id="TzS1LCkyJQZkEgtBNQex-42" value="OtherClients" style="shape=umlLifeline;perimeter=lifelinePerimeter;whiteSpace=wrap;html=1;container=0;dropTarget=0;collapsible=0;recursiveResize=0;outlineConnect=0;portConstraint=eastwest;newEdgeStyle={&quot;edgeStyle&quot;:&quot;elbowEdgeStyle&quot;,&quot;elbow&quot;:&quot;vertical&quot;,&quot;curved&quot;:0,&quot;rounded&quot;:0};" parent="1" vertex="1">
          <mxGeometry x="390" y="15" width="100" height="1194" as="geometry" />
        </mxCell>
        <mxCell id="TzS1LCkyJQZkEgtBNQex-43" value="" style="html=1;points=[];perimeter=orthogonalPerimeter;outlineConnect=0;targetShapes=umlLifeline;portConstraint=eastwest;newEdgeStyle={&quot;edgeStyle&quot;:&quot;elbowEdgeStyle&quot;,&quot;elbow&quot;:&quot;vertical&quot;,&quot;curved&quot;:0,&quot;rounded&quot;:0};" parent="TzS1LCkyJQZkEgtBNQex-42" vertex="1">
          <mxGeometry x="45" y="389" width="10" height="17" as="geometry" />
        </mxCell>
        <mxCell id="TzS1LCkyJQZkEgtBNQex-47" value="" style="html=1;points=[[0,0,0,0,5],[0,1,0,0,-5],[1,0,0,0,5],[1,1,0,0,-5]];perimeter=orthogonalPerimeter;outlineConnect=0;targetShapes=umlLifeline;portConstraint=eastwest;newEdgeStyle={&quot;curved&quot;:0,&quot;rounded&quot;:0};" parent="TzS1LCkyJQZkEgtBNQex-42" vertex="1">
          <mxGeometry x="45" y="529" width="10" height="20" as="geometry" />
        </mxCell>
        <mxCell id="TzS1LCkyJQZkEgtBNQex-45" value="NewPlayerMessage" style="html=1;verticalAlign=bottom;endArrow=block;curved=0;rounded=0;" parent="1" edge="1">
          <mxGeometry width="80" relative="1" as="geometry">
            <mxPoint x="275" y="409" as="sourcePoint" />
            <mxPoint x="430" y="409" as="targetPoint" />
          </mxGeometry>
        </mxCell>
        <mxCell id="TzS1LCkyJQZkEgtBNQex-46" value="UNAVAIABLECOLOR" style="html=1;verticalAlign=bottom;endArrow=block;curved=0;rounded=0;" parent="1" edge="1">
          <mxGeometry width="80" relative="1" as="geometry">
            <mxPoint x="275" y="549" as="sourcePoint" />
            <mxPoint x="430" y="549" as="targetPoint" />
          </mxGeometry>
        </mxCell>
        <mxCell id="TzS1LCkyJQZkEgtBNQex-55" value="" style="html=1;points=[[0,0,0,0,5],[0,1,0,0,-5],[1,0,0,0,5],[1,1,0,0,-5]];perimeter=orthogonalPerimeter;outlineConnect=0;targetShapes=umlLifeline;portConstraint=eastwest;newEdgeStyle={&quot;curved&quot;:0,&quot;rounded&quot;:0};" parent="1" vertex="1">
          <mxGeometry x="85" y="944" width="10" height="80" as="geometry" />
        </mxCell>
        <mxCell id="TzS1LCkyJQZkEgtBNQex-56" value="" style="html=1;points=[[0,0,0,0,5],[0,1,0,0,-5],[1,0,0,0,5],[1,1,0,0,-5]];perimeter=orthogonalPerimeter;outlineConnect=0;targetShapes=umlLifeline;portConstraint=eastwest;newEdgeStyle={&quot;curved&quot;:0,&quot;rounded&quot;:0};" parent="1" vertex="1">
          <mxGeometry x="265" y="944" width="10" height="90" as="geometry" />
        </mxCell>
        <mxCell id="TzS1LCkyJQZkEgtBNQex-57" value="OBJECTIVECARD" style="html=1;verticalAlign=bottom;endArrow=block;curved=0;rounded=0;" parent="1" edge="1">
          <mxGeometry width="80" relative="1" as="geometry">
            <mxPoint x="265" y="954" as="sourcePoint" />
            <mxPoint x="100" y="954" as="targetPoint" />
          </mxGeometry>
        </mxCell>
        <mxCell id="TzS1LCkyJQZkEgtBNQex-58" value="SELECTED CARD" style="html=1;verticalAlign=bottom;endArrow=open;dashed=1;endSize=8;curved=0;rounded=0;" parent="1" edge="1">
          <mxGeometry relative="1" as="geometry">
            <mxPoint x="100" y="1014" as="sourcePoint" />
            <mxPoint x="265" y="1014" as="targetPoint" />
          </mxGeometry>
        </mxCell>
        <mxCell id="TzS1LCkyJQZkEgtBNQex-59" value="" style="html=1;points=[[0,0,0,0,5],[0,1,0,0,-5],[1,0,0,0,5],[1,1,0,0,-5]];perimeter=orthogonalPerimeter;outlineConnect=0;targetShapes=umlLifeline;portConstraint=eastwest;newEdgeStyle={&quot;curved&quot;:0,&quot;rounded&quot;:0};" parent="1" vertex="1">
          <mxGeometry x="435" y="1027" width="10" height="20" as="geometry" />
        </mxCell>
        <mxCell id="TzS1LCkyJQZkEgtBNQex-60" value="OTHEROBJECTIVECARD" style="html=1;verticalAlign=bottom;endArrow=block;curved=0;rounded=0;" parent="1" edge="1">
          <mxGeometry width="80" relative="1" as="geometry">
            <mxPoint x="275" y="1024" as="sourcePoint" />
            <mxPoint x="430" y="1024" as="targetPoint" />
          </mxGeometry>
        </mxCell>
        <mxCell id="TzS1LCkyJQZkEgtBNQex-61" value="InitialHandMessage" style="html=1;verticalAlign=bottom;endArrow=block;curved=0;rounded=0;" parent="1" edge="1">
          <mxGeometry width="80" relative="1" as="geometry">
            <mxPoint x="269.5" y="862.0000000000002" as="sourcePoint" />
            <mxPoint x="94.94736842105249" y="862.0000000000001" as="targetPoint" />
          </mxGeometry>
        </mxCell>
        <mxCell id="TzS1LCkyJQZkEgtBNQex-79" value="Client" style="shape=umlLifeline;perimeter=lifelinePerimeter;whiteSpace=wrap;html=1;container=0;dropTarget=0;collapsible=0;recursiveResize=0;outlineConnect=0;portConstraint=eastwest;newEdgeStyle={&quot;edgeStyle&quot;:&quot;elbowEdgeStyle&quot;,&quot;elbow&quot;:&quot;vertical&quot;,&quot;curved&quot;:0,&quot;rounded&quot;:0};" parent="1" vertex="1">
          <mxGeometry x="720" y="10" width="100" height="650" as="geometry" />
        </mxCell>
        <mxCell id="Fvfi_yW-NIccIC17RvOr-10" value="" style="html=1;points=[[0,0,0,0,5],[0,1,0,0,-5],[1,0,0,0,5],[1,1,0,0,-5]];perimeter=orthogonalPerimeter;outlineConnect=0;targetShapes=umlLifeline;portConstraint=eastwest;newEdgeStyle={&quot;curved&quot;:0,&quot;rounded&quot;:0};" parent="TzS1LCkyJQZkEgtBNQex-79" vertex="1">
          <mxGeometry x="45" y="560" width="10" height="50" as="geometry" />
        </mxCell>
        <mxCell id="TzS1LCkyJQZkEgtBNQex-82" value="Server" style="shape=umlLifeline;perimeter=lifelinePerimeter;whiteSpace=wrap;html=1;container=0;dropTarget=0;collapsible=0;recursiveResize=0;outlineConnect=0;portConstraint=eastwest;newEdgeStyle={&quot;edgeStyle&quot;:&quot;elbowEdgeStyle&quot;,&quot;elbow&quot;:&quot;vertical&quot;,&quot;curved&quot;:0,&quot;rounded&quot;:0};" parent="1" vertex="1">
          <mxGeometry x="900" y="10" width="100" height="650" as="geometry" />
        </mxCell>
        <mxCell id="TzS1LCkyJQZkEgtBNQex-153" value="" style="html=1;points=[[0,0,0,0,5],[0,1,0,0,-5],[1,0,0,0,5],[1,1,0,0,-5]];perimeter=orthogonalPerimeter;outlineConnect=0;targetShapes=umlLifeline;portConstraint=eastwest;newEdgeStyle={&quot;curved&quot;:0,&quot;rounded&quot;:0};" parent="TzS1LCkyJQZkEgtBNQex-82" vertex="1">
          <mxGeometry x="45" y="550" width="10" height="60" as="geometry" />
        </mxCell>
        <mxCell id="TzS1LCkyJQZkEgtBNQex-86" value="OtherClients" style="shape=umlLifeline;perimeter=lifelinePerimeter;whiteSpace=wrap;html=1;container=0;dropTarget=0;collapsible=0;recursiveResize=0;outlineConnect=0;portConstraint=eastwest;newEdgeStyle={&quot;edgeStyle&quot;:&quot;elbowEdgeStyle&quot;,&quot;elbow&quot;:&quot;vertical&quot;,&quot;curved&quot;:0,&quot;rounded&quot;:0};" parent="1" vertex="1">
          <mxGeometry x="1090" y="15" width="100" height="675" as="geometry" />
        </mxCell>
        <mxCell id="TzS1LCkyJQZkEgtBNQex-91" value="NEXTTURN" style="html=1;verticalAlign=bottom;endArrow=block;curved=0;rounded=0;" parent="1" edge="1">
          <mxGeometry width="80" relative="1" as="geometry">
            <mxPoint x="949.4999999999995" y="90" as="sourcePoint" />
            <mxPoint x="769.3235294117649" y="90" as="targetPoint" />
          </mxGeometry>
        </mxCell>
        <mxCell id="TzS1LCkyJQZkEgtBNQex-93" value="CARDPLACEMENT" style="html=1;verticalAlign=bottom;endArrow=block;curved=0;rounded=0;" parent="1" target="TzS1LCkyJQZkEgtBNQex-82" edge="1">
          <mxGeometry width="80" relative="1" as="geometry">
            <mxPoint x="770" y="150" as="sourcePoint" />
            <mxPoint x="850" y="150" as="targetPoint" />
          </mxGeometry>
        </mxCell>
        <mxCell id="TzS1LCkyJQZkEgtBNQex-94" value="while confirmation is false" style="shape=umlFrame;whiteSpace=wrap;html=1;pointerEvents=0;width=90;height=40;" parent="1" vertex="1">
          <mxGeometry x="670" y="110" width="300" height="140" as="geometry" />
        </mxCell>
        <mxCell id="TzS1LCkyJQZkEgtBNQex-95" value="CONFIRMATION" style="html=1;verticalAlign=bottom;endArrow=open;dashed=1;endSize=8;curved=0;rounded=0;" parent="1" edge="1">
          <mxGeometry relative="1" as="geometry">
            <mxPoint x="950" y="209.41" as="sourcePoint" />
            <mxPoint x="770" y="210" as="targetPoint" />
          </mxGeometry>
        </mxCell>
        <mxCell id="TzS1LCkyJQZkEgtBNQex-98" value="" style="html=1;points=[[0,0,0,0,5],[0,1,0,0,-5],[1,0,0,0,5],[1,1,0,0,-5]];perimeter=orthogonalPerimeter;outlineConnect=0;targetShapes=umlLifeline;portConstraint=eastwest;newEdgeStyle={&quot;curved&quot;:0,&quot;rounded&quot;:0};" parent="1" vertex="1">
          <mxGeometry x="946" y="140" width="10" height="190" as="geometry" />
        </mxCell>
        <mxCell id="TzS1LCkyJQZkEgtBNQex-99" value="" style="html=1;points=[[0,0,0,0,5],[0,1,0,0,-5],[1,0,0,0,5],[1,1,0,0,-5]];perimeter=orthogonalPerimeter;outlineConnect=0;targetShapes=umlLifeline;portConstraint=eastwest;newEdgeStyle={&quot;curved&quot;:0,&quot;rounded&quot;:0};" parent="1" vertex="1">
          <mxGeometry x="765" y="140" width="10" height="80" as="geometry" />
        </mxCell>
        <mxCell id="TzS1LCkyJQZkEgtBNQex-100" value="OTHERSCARDPLACEMENT AND OTHERNEWPOINTS" style="html=1;verticalAlign=bottom;endArrow=block;curved=0;rounded=0;" parent="1" edge="1">
          <mxGeometry width="80" relative="1" as="geometry">
            <mxPoint x="960" y="278" as="sourcePoint" />
            <mxPoint x="1139.5" y="278" as="targetPoint" />
          </mxGeometry>
        </mxCell>
        <mxCell id="TzS1LCkyJQZkEgtBNQex-107" value="DRAWCARD" style="html=1;verticalAlign=bottom;endArrow=block;curved=0;rounded=0;" parent="1" edge="1">
          <mxGeometry width="80" relative="1" as="geometry">
            <mxPoint x="770" y="380" as="sourcePoint" />
            <mxPoint x="949" y="380" as="targetPoint" />
          </mxGeometry>
        </mxCell>
        <mxCell id="TzS1LCkyJQZkEgtBNQex-108" value="while confirmation is false" style="shape=umlFrame;whiteSpace=wrap;html=1;pointerEvents=0;width=90;height=40;" parent="1" vertex="1">
          <mxGeometry x="670" y="340" width="310" height="140" as="geometry" />
        </mxCell>
        <mxCell id="TzS1LCkyJQZkEgtBNQex-109" value="CONFIRMATION" style="html=1;verticalAlign=bottom;endArrow=open;dashed=1;endSize=8;curved=0;rounded=0;" parent="1" edge="1">
          <mxGeometry relative="1" as="geometry">
            <mxPoint x="957" y="439.40999999999997" as="sourcePoint" />
            <mxPoint x="777" y="440" as="targetPoint" />
          </mxGeometry>
        </mxCell>
        <mxCell id="TzS1LCkyJQZkEgtBNQex-110" value="" style="html=1;points=[[0,0,0,0,5],[0,1,0,0,-5],[1,0,0,0,5],[1,1,0,0,-5]];perimeter=orthogonalPerimeter;outlineConnect=0;targetShapes=umlLifeline;portConstraint=eastwest;newEdgeStyle={&quot;curved&quot;:0,&quot;rounded&quot;:0};" parent="1" vertex="1">
          <mxGeometry x="950" y="370" width="10" height="130" as="geometry" />
        </mxCell>
        <mxCell id="TzS1LCkyJQZkEgtBNQex-111" value="" style="html=1;points=[[0,0,0,0,5],[0,1,0,0,-5],[1,0,0,0,5],[1,1,0,0,-5]];perimeter=orthogonalPerimeter;outlineConnect=0;targetShapes=umlLifeline;portConstraint=eastwest;newEdgeStyle={&quot;curved&quot;:0,&quot;rounded&quot;:0};" parent="1" vertex="1">
          <mxGeometry x="769" y="370" width="10" height="80" as="geometry" />
        </mxCell>
        <mxCell id="TzS1LCkyJQZkEgtBNQex-112" value="OTHERSDRAWCARD" style="html=1;verticalAlign=bottom;endArrow=block;curved=0;rounded=0;" parent="1" edge="1">
          <mxGeometry width="80" relative="1" as="geometry">
            <mxPoint x="960" y="490" as="sourcePoint" />
            <mxPoint x="1139" y="490" as="targetPoint" />
          </mxGeometry>
        </mxCell>
        <mxCell id="TzS1LCkyJQZkEgtBNQex-113" value="while LeaderBard not received" style="shape=umlFrame;whiteSpace=wrap;html=1;pointerEvents=0;width=90;height=50;" parent="1" vertex="1">
          <mxGeometry x="580" y="70" width="630" height="440" as="geometry" />
        </mxCell>
        <mxCell id="TzS1LCkyJQZkEgtBNQex-127" value="LEADERBOARD" style="html=1;verticalAlign=bottom;endArrow=block;curved=0;rounded=0;" parent="1" edge="1">
          <mxGeometry width="80" relative="1" as="geometry">
            <mxPoint x="940" y="576" as="sourcePoint" />
            <mxPoint x="780" y="576" as="targetPoint" />
          </mxGeometry>
        </mxCell>
        <mxCell id="TzS1LCkyJQZkEgtBNQex-128" value="QUITORPLAYAGAIN" style="html=1;verticalAlign=bottom;endArrow=block;curved=0;rounded=0;" parent="1" edge="1">
          <mxGeometry width="80" relative="1" as="geometry">
            <mxPoint x="774" y="600" as="sourcePoint" />
            <mxPoint x="945" y="600" as="targetPoint" />
          </mxGeometry>
        </mxCell>
        <mxCell id="TzS1LCkyJQZkEgtBNQex-129" value="Client" style="shape=umlLifeline;perimeter=lifelinePerimeter;whiteSpace=wrap;html=1;container=0;dropTarget=0;collapsible=0;recursiveResize=0;outlineConnect=0;portConstraint=eastwest;newEdgeStyle={&quot;edgeStyle&quot;:&quot;elbowEdgeStyle&quot;,&quot;elbow&quot;:&quot;vertical&quot;,&quot;curved&quot;:0,&quot;rounded&quot;:0};" parent="1" vertex="1">
          <mxGeometry x="1410" y="15" width="100" height="182" as="geometry" />
        </mxCell>
        <mxCell id="TzS1LCkyJQZkEgtBNQex-130" value="Server" style="shape=umlLifeline;perimeter=lifelinePerimeter;whiteSpace=wrap;html=1;container=0;dropTarget=0;collapsible=0;recursiveResize=0;outlineConnect=0;portConstraint=eastwest;newEdgeStyle={&quot;edgeStyle&quot;:&quot;elbowEdgeStyle&quot;,&quot;elbow&quot;:&quot;vertical&quot;,&quot;curved&quot;:0,&quot;rounded&quot;:0};" parent="1" vertex="1">
          <mxGeometry x="1590" y="15" width="100" height="219" as="geometry" />
        </mxCell>
        <mxCell id="TzS1LCkyJQZkEgtBNQex-131" value="OtherClients" style="shape=umlLifeline;perimeter=lifelinePerimeter;whiteSpace=wrap;html=1;container=0;dropTarget=0;collapsible=0;recursiveResize=0;outlineConnect=0;portConstraint=eastwest;newEdgeStyle={&quot;edgeStyle&quot;:&quot;elbowEdgeStyle&quot;,&quot;elbow&quot;:&quot;vertical&quot;,&quot;curved&quot;:0,&quot;rounded&quot;:0};" parent="1" vertex="1">
          <mxGeometry x="1780" y="15" width="100" height="224" as="geometry" />
        </mxCell>
        <mxCell id="TzS1LCkyJQZkEgtBNQex-132" value="PLAYERNAME" style="html=1;verticalAlign=bottom;endArrow=block;curved=0;rounded=0;" parent="1" target="TzS1LCkyJQZkEgtBNQex-130" edge="1">
          <mxGeometry width="80" relative="1" as="geometry">
            <mxPoint x="1460" y="100" as="sourcePoint" />
            <mxPoint x="1540" y="100" as="targetPoint" />
          </mxGeometry>
        </mxCell>
        <mxCell id="TzS1LCkyJQZkEgtBNQex-135" value="RECONNECTION&amp;nbsp;" style="html=1;verticalAlign=bottom;endArrow=block;curved=0;rounded=0;" parent="1" source="TzS1LCkyJQZkEgtBNQex-145" edge="1">
          <mxGeometry width="80" relative="1" as="geometry">
            <mxPoint x="1639.4999999999995" y="160" as="sourcePoint" />
            <mxPoint x="1459.3235294117649" y="160" as="targetPoint" />
            <Array as="points" />
          </mxGeometry>
        </mxCell>
        <mxCell id="TzS1LCkyJQZkEgtBNQex-136" value="OTHERRECONNECTION" style="html=1;verticalAlign=bottom;endArrow=block;curved=0;rounded=0;" parent="1" target="TzS1LCkyJQZkEgtBNQex-131" edge="1">
          <mxGeometry width="80" relative="1" as="geometry">
            <mxPoint x="1640" y="200" as="sourcePoint" />
            <mxPoint x="1720" y="200" as="targetPoint" />
          </mxGeometry>
        </mxCell>
        <mxCell id="TzS1LCkyJQZkEgtBNQex-139" value="Client" style="shape=umlLifeline;perimeter=lifelinePerimeter;whiteSpace=wrap;html=1;container=0;dropTarget=0;collapsible=0;recursiveResize=0;outlineConnect=0;portConstraint=eastwest;newEdgeStyle={&quot;edgeStyle&quot;:&quot;elbowEdgeStyle&quot;,&quot;elbow&quot;:&quot;vertical&quot;,&quot;curved&quot;:0,&quot;rounded&quot;:0};" parent="1" vertex="1">
          <mxGeometry x="1441" y="482" width="100" height="165" as="geometry" />
        </mxCell>
        <mxCell id="TzS1LCkyJQZkEgtBNQex-140" value="Server" style="shape=umlLifeline;perimeter=lifelinePerimeter;whiteSpace=wrap;html=1;container=0;dropTarget=0;collapsible=0;recursiveResize=0;outlineConnect=0;portConstraint=eastwest;newEdgeStyle={&quot;edgeStyle&quot;:&quot;elbowEdgeStyle&quot;,&quot;elbow&quot;:&quot;vertical&quot;,&quot;curved&quot;:0,&quot;rounded&quot;:0};" parent="1" vertex="1">
          <mxGeometry x="1621" y="482" width="100" height="160" as="geometry" />
        </mxCell>
        <mxCell id="TzS1LCkyJQZkEgtBNQex-152" value="" style="html=1;points=[[0,0,0,0,5],[0,1,0,0,-5],[1,0,0,0,5],[1,1,0,0,-5]];perimeter=orthogonalPerimeter;outlineConnect=0;targetShapes=umlLifeline;portConstraint=eastwest;newEdgeStyle={&quot;curved&quot;:0,&quot;rounded&quot;:0};" parent="TzS1LCkyJQZkEgtBNQex-140" vertex="1">
          <mxGeometry x="45" y="90" width="10" height="40" as="geometry" />
        </mxCell>
        <mxCell id="TzS1LCkyJQZkEgtBNQex-141" value="OtherClients + Client" style="shape=umlLifeline;perimeter=lifelinePerimeter;whiteSpace=wrap;html=1;container=0;dropTarget=0;collapsible=0;recursiveResize=0;outlineConnect=0;portConstraint=eastwest;newEdgeStyle={&quot;edgeStyle&quot;:&quot;elbowEdgeStyle&quot;,&quot;elbow&quot;:&quot;vertical&quot;,&quot;curved&quot;:0,&quot;rounded&quot;:0};" parent="1" vertex="1">
          <mxGeometry x="1811" y="482" width="100" height="175" as="geometry" />
        </mxCell>
        <mxCell id="TzS1LCkyJQZkEgtBNQex-143" value="CHATMESSAGE" style="html=1;verticalAlign=bottom;endArrow=block;curved=0;rounded=0;" parent="1" edge="1">
          <mxGeometry width="80" relative="1" as="geometry">
            <mxPoint x="1491" y="577" as="sourcePoint" />
            <mxPoint x="1661" y="577" as="targetPoint" />
          </mxGeometry>
        </mxCell>
        <mxCell id="TzS1LCkyJQZkEgtBNQex-145" value="" style="html=1;points=[[0,0,0,0,5],[0,1,0,0,-5],[1,0,0,0,5],[1,1,0,0,-5]];perimeter=orthogonalPerimeter;outlineConnect=0;targetShapes=umlLifeline;portConstraint=eastwest;newEdgeStyle={&quot;curved&quot;:0,&quot;rounded&quot;:0};" parent="1" vertex="1">
          <mxGeometry x="1635" y="90" width="10" height="110" as="geometry" />
        </mxCell>
        <mxCell id="TzS1LCkyJQZkEgtBNQex-147" value="CHATMESSAGE" style="html=1;verticalAlign=bottom;endArrow=block;curved=0;rounded=0;" parent="1" target="TzS1LCkyJQZkEgtBNQex-141" edge="1">
          <mxGeometry width="80" relative="1" as="geometry">
            <mxPoint x="1681" y="607" as="sourcePoint" />
            <mxPoint x="1751" y="607" as="targetPoint" />
          </mxGeometry>
        </mxCell>
        <mxCell id="TzS1LCkyJQZkEgtBNQex-148" value="INIZIALIZZAZIONE" style="html=1;whiteSpace=wrap;" parent="1" vertex="1">
          <mxGeometry x="85" y="-100" width="275" height="50" as="geometry" />
        </mxCell>
        <mxCell id="TzS1LCkyJQZkEgtBNQex-149" value="FASE DI GIOCO&amp;nbsp;" style="html=1;whiteSpace=wrap;" parent="1" vertex="1">
          <mxGeometry x="750" y="-100" width="275" height="50" as="geometry" />
        </mxCell>
        <mxCell id="TzS1LCkyJQZkEgtBNQex-150" value="RICONNESSIONE" style="html=1;whiteSpace=wrap;" parent="1" vertex="1">
          <mxGeometry x="1510" y="-100" width="275" height="50" as="geometry" />
        </mxCell>
        <mxCell id="TzS1LCkyJQZkEgtBNQex-151" value="CHAT" style="html=1;whiteSpace=wrap;" parent="1" vertex="1">
          <mxGeometry x="1551" y="367" width="275" height="50" as="geometry" />
        </mxCell>
        <mxCell id="TzS1LCkyJQZkEgtBNQex-154" value="&lt;span style=&quot;text-wrap: nowrap;&quot;&gt;NB: durante le fasi di gioco se qualcuno si connette con&lt;/span&gt;&lt;span style=&quot;text-wrap: nowrap; background-color: initial;&quot;&gt;&amp;nbsp;un nuovo nome o con il nome&lt;/span&gt;&lt;div style=&quot;text-wrap: nowrap;&quot;&gt;&amp;nbsp;di un player online riceve il messaggio MATCHALREADYFULL&lt;/div&gt;" style="html=1;whiteSpace=wrap;" parent="1" vertex="1">
          <mxGeometry x="1424" y="282" width="470" height="50" as="geometry" />
        </mxCell>
        <mxCell id="Fvfi_yW-NIccIC17RvOr-2" value="ACK" style="html=1;verticalAlign=bottom;endArrow=open;dashed=1;endSize=8;curved=0;rounded=0;" parent="1" edge="1">
          <mxGeometry relative="1" as="geometry">
            <mxPoint x="94.57142857142867" y="896" as="sourcePoint" />
            <mxPoint x="260" y="896" as="targetPoint" />
          </mxGeometry>
        </mxCell>
        <mxCell id="Fvfi_yW-NIccIC17RvOr-8" value="" style="html=1;verticalAlign=bottom;endArrow=block;curved=0;rounded=0;" parent="1" edge="1">
          <mxGeometry width="80" relative="1" as="geometry">
            <mxPoint x="263" y="688" as="sourcePoint" />
            <mxPoint x="99" y="688" as="targetPoint" />
            <Array as="points">
              <mxPoint x="229" y="688" />
            </Array>
          </mxGeometry>
        </mxCell>
        <mxCell id="DGeFTbc-uDnH9qFSbPcV-8" value="PlayersOrderMessage" style="edgeLabel;html=1;align=center;verticalAlign=middle;resizable=0;points=[];" vertex="1" connectable="0" parent="Fvfi_yW-NIccIC17RvOr-8">
          <mxGeometry x="0.046" y="-1" relative="1" as="geometry">
            <mxPoint x="1" as="offset" />
          </mxGeometry>
        </mxCell>
        <mxCell id="Fvfi_yW-NIccIC17RvOr-7" value="" style="html=1;points=[[0,0,0,0,5],[0,1,0,0,-5],[1,0,0,0,5],[1,1,0,0,-5]];perimeter=orthogonalPerimeter;outlineConnect=0;targetShapes=umlLifeline;portConstraint=eastwest;newEdgeStyle={&quot;curved&quot;:0,&quot;rounded&quot;:0};" parent="1" vertex="1">
          <mxGeometry x="85" y="679" width="10" height="50" as="geometry" />
        </mxCell>
        <mxCell id="DGeFTbc-uDnH9qFSbPcV-1" value="" style="html=1;points=[];perimeter=orthogonalPerimeter;outlineConnect=0;targetShapes=umlLifeline;portConstraint=eastwest;newEdgeStyle={&quot;edgeStyle&quot;:&quot;elbowEdgeStyle&quot;,&quot;elbow&quot;:&quot;vertical&quot;,&quot;curved&quot;:0,&quot;rounded&quot;:0};" vertex="1" parent="1">
          <mxGeometry x="85" y="235" width="10" height="60" as="geometry" />
        </mxCell>
        <mxCell id="DGeFTbc-uDnH9qFSbPcV-2" value="" style="html=1;points=[];perimeter=orthogonalPerimeter;outlineConnect=0;targetShapes=umlLifeline;portConstraint=eastwest;newEdgeStyle={&quot;edgeStyle&quot;:&quot;elbowEdgeStyle&quot;,&quot;elbow&quot;:&quot;vertical&quot;,&quot;curved&quot;:0,&quot;rounded&quot;:0};" vertex="1" parent="1">
          <mxGeometry x="265" y="234" width="10" height="60" as="geometry" />
        </mxCell>
        <mxCell id="DGeFTbc-uDnH9qFSbPcV-3" value="" style="endArrow=classic;html=1;rounded=0;exitX=0;exitY=0.35;exitDx=0;exitDy=0;exitPerimeter=0;" edge="1" parent="1">
          <mxGeometry width="50" height="50" relative="1" as="geometry">
            <mxPoint x="265" y="245" as="sourcePoint" />
            <mxPoint x="95" y="245" as="targetPoint" />
          </mxGeometry>
        </mxCell>
        <mxCell id="DGeFTbc-uDnH9qFSbPcV-4" value="LobbyPlayersMessage" style="edgeLabel;html=1;align=center;verticalAlign=middle;resizable=0;points=[];" vertex="1" connectable="0" parent="DGeFTbc-uDnH9qFSbPcV-3">
          <mxGeometry x="-0.0258" y="1" relative="1" as="geometry">
            <mxPoint as="offset" />
          </mxGeometry>
        </mxCell>
        <mxCell id="DGeFTbc-uDnH9qFSbPcV-5" value="" style="html=1;points=[[0,0,0,0,5],[0,1,0,0,-5],[1,0,0,0,5],[1,1,0,0,-5]];perimeter=orthogonalPerimeter;outlineConnect=0;targetShapes=umlLifeline;portConstraint=eastwest;newEdgeStyle={&quot;curved&quot;:0,&quot;rounded&quot;:0};" vertex="1" parent="1">
          <mxGeometry x="85" y="609" width="10" height="50" as="geometry" />
        </mxCell>
        <mxCell id="DGeFTbc-uDnH9qFSbPcV-6" value="" style="endArrow=classic;html=1;rounded=0;" edge="1" parent="1">
          <mxGeometry width="50" height="50" relative="1" as="geometry">
            <mxPoint x="260" y="650" as="sourcePoint" />
            <mxPoint x="95" y="650" as="targetPoint" />
          </mxGeometry>
        </mxCell>
        <mxCell id="DGeFTbc-uDnH9qFSbPcV-7" value="ReadyStatusMessage" style="edgeLabel;html=1;align=center;verticalAlign=middle;resizable=0;points=[];" vertex="1" connectable="0" parent="DGeFTbc-uDnH9qFSbPcV-6">
          <mxGeometry x="-0.0374" relative="1" as="geometry">
            <mxPoint x="1" as="offset" />
          </mxGeometry>
        </mxCell>
        <mxCell id="DGeFTbc-uDnH9qFSbPcV-9" value="" style="endArrow=classic;html=1;rounded=0;" edge="1" parent="1" source="aM9ryv3xv72pqoxQDRHE-6">
          <mxGeometry width="50" height="50" relative="1" as="geometry">
            <mxPoint x="357" y="437" as="sourcePoint" />
            <mxPoint x="99" y="387" as="targetPoint" />
          </mxGeometry>
        </mxCell>
        <mxCell id="DGeFTbc-uDnH9qFSbPcV-13" value="PlayerNameMessage" style="edgeLabel;html=1;align=center;verticalAlign=middle;resizable=0;points=[];" vertex="1" connectable="0" parent="DGeFTbc-uDnH9qFSbPcV-9">
          <mxGeometry x="0.0312" y="1" relative="1" as="geometry">
            <mxPoint as="offset" />
          </mxGeometry>
        </mxCell>
        <mxCell id="DGeFTbc-uDnH9qFSbPcV-16" value="" style="endArrow=classic;html=1;rounded=0;" edge="1" parent="1" source="TzS1LCkyJQZkEgtBNQex-19" target="TzS1LCkyJQZkEgtBNQex-18">
          <mxGeometry width="50" height="50" relative="1" as="geometry">
            <mxPoint x="357" y="519" as="sourcePoint" />
            <mxPoint x="407" y="469" as="targetPoint" />
          </mxGeometry>
        </mxCell>
        <mxCell id="DGeFTbc-uDnH9qFSbPcV-18" value="PlayerColorMessage" style="edgeLabel;html=1;align=center;verticalAlign=middle;resizable=0;points=[];" vertex="1" connectable="0" parent="DGeFTbc-uDnH9qFSbPcV-16">
          <mxGeometry x="0.0484" y="1" relative="1" as="geometry">
            <mxPoint as="offset" />
          </mxGeometry>
        </mxCell>
        <mxCell id="DGeFTbc-uDnH9qFSbPcV-19" value="" style="endArrow=classic;html=1;rounded=0;" edge="1" parent="1">
          <mxGeometry width="50" height="50" relative="1" as="geometry">
            <mxPoint x="95" y="801" as="sourcePoint" />
            <mxPoint x="265" y="801" as="targetPoint" />
          </mxGeometry>
        </mxCell>
        <mxCell id="DGeFTbc-uDnH9qFSbPcV-20" value="SetStartingCardMessage" style="edgeLabel;html=1;align=center;verticalAlign=middle;resizable=0;points=[];" vertex="1" connectable="0" parent="DGeFTbc-uDnH9qFSbPcV-19">
          <mxGeometry x="-0.0208" y="-2" relative="1" as="geometry">
            <mxPoint as="offset" />
          </mxGeometry>
        </mxCell>
      </root>
    </mxGraphModel>
  </diagram>
</mxfile>
